# This file uses centimeters as units for non-parametric coordinates.

mtllib ball.mtl
g default
v 0.245979 -0.935760 -0.178714
v 0.093956 -0.935760 -0.289166
v -0.093956 -0.935760 -0.289166
v -0.245979 -0.935760 -0.178714
v -0.304047 -0.935760 0.000000
v -0.245979 -0.935760 0.178714
v -0.093956 -0.935760 0.289166
v 0.093956 -0.935760 0.289166
v 0.245979 -0.935760 0.178714
v 0.304047 -0.935760 0.000000
v 0.467880 -0.796005 -0.339935
v 0.178714 -0.796005 -0.550026
v -0.178714 -0.796005 -0.550026
v -0.467880 -0.796005 -0.339935
v -0.578331 -0.796005 0.000000
v -0.467880 -0.796005 0.339935
v -0.178714 -0.796005 0.550026
v 0.178714 -0.796005 0.550026
v 0.467880 -0.796005 0.339935
v 0.578331 -0.796005 0.000000
v 0.643982 -0.578331 -0.467880
v 0.245979 -0.578331 -0.757046
v -0.245979 -0.578331 -0.757046
v -0.643982 -0.578331 -0.467880
v -0.796005 -0.578331 0.000000
v -0.643982 -0.578331 0.467880
v -0.245979 -0.578331 0.757046
v 0.245979 -0.578331 0.757046
v 0.643982 -0.578331 0.467880
v 0.796005 -0.578331 0.000000
v 0.757046 -0.304047 -0.550026
v 0.289166 -0.304047 -0.889961
v -0.289166 -0.304047 -0.889961
v -0.757046 -0.304047 -0.550026
v -0.935760 -0.304047 0.000000
v -0.757046 -0.304047 0.550026
v -0.289166 -0.304047 0.889961
v 0.289166 -0.304047 0.889961
v 0.757046 -0.304047 0.550026
v 0.935760 -0.304047 0.000000
v 0.796005 0.000000 -0.578332
v 0.304047 0.000000 -0.935760
v -0.304047 0.000000 -0.935760
v -0.796005 0.000000 -0.578331
v -0.983916 0.000000 0.000000
v -0.796005 0.000000 0.578331
v -0.304047 0.000000 0.935760
v 0.304047 0.000000 0.935760
v 0.796005 0.000000 0.578331
v 0.983916 0.000000 0.000000
v 0.757046 0.304047 -0.550026
v 0.289166 0.304047 -0.889961
v -0.289166 0.304047 -0.889961
v -0.757046 0.304047 -0.550026
v -0.935760 0.304047 0.000000
v -0.757046 0.304047 0.550026
v -0.289166 0.304047 0.889961
v 0.289166 0.304047 0.889961
v 0.757046 0.304047 0.550026
v 0.935760 0.304047 0.000000
v 0.643982 0.578331 -0.467880
v 0.245979 0.578331 -0.757046
v -0.245979 0.578331 -0.757046
v -0.643982 0.578331 -0.467880
v -0.796005 0.578331 0.000000
v -0.643982 0.578331 0.467880
v -0.245979 0.578331 0.757046
v 0.245979 0.578331 0.757046
v 0.643982 0.578331 0.467880
v 0.796005 0.578331 0.000000
v 0.467880 0.796005 -0.339935
v 0.178714 0.796005 -0.550026
v -0.178714 0.796005 -0.550026
v -0.467880 0.796005 -0.339935
v -0.578331 0.796005 0.000000
v -0.467880 0.796005 0.339935
v -0.178714 0.796005 0.550026
v 0.178714 0.796005 0.550026
v 0.467880 0.796005 0.339935
v 0.578331 0.796005 0.000000
v 0.245979 0.935760 -0.178714
v 0.093956 0.935760 -0.289166
v -0.093956 0.935760 -0.289166
v -0.245979 0.935760 -0.178714
v -0.304047 0.935760 0.000000
v -0.245979 0.935760 0.178714
v -0.093956 0.935760 0.289166
v 0.093956 0.935760 0.289166
v 0.245979 0.935760 0.178714
v 0.304047 0.935760 0.000000
v 0.000000 -0.983916 0.000000
v 0.000000 0.983916 0.000000
vt 0.242502 0.179182
vt 0.273835 0.207682
vt 0.323103 0.222972
vt 0.381913 0.229616
vt 0.446082 0.231617
vt 0.513229 0.231465
vt 0.581490 0.230328
vt 0.648815 0.228144
vt 0.712360 0.223378
vt 0.767626 0.212484
vt 0.806722 0.189491
vt 0.163668 0.215426
vt 0.218287 0.259823
vt 0.286685 0.280609
vt 0.359413 0.288805
vt 0.433766 0.291030
vt 0.509193 0.290879
vt 0.585657 0.290117
vt 0.663083 0.289086
vt 0.741055 0.286215
vt 0.818105 0.276124
vt 0.888607 0.245225
vt 0.094608 0.271534
vt 0.174820 0.318983
vt 0.259114 0.339975
vt 0.342420 0.348052
vt 0.424326 0.350112
vt 0.505778 0.349806
vt 0.588017 0.349105
vt 0.672310 0.348822
vt 0.759914 0.348247
vt 0.852000 0.343445
vt 0.949104 0.322879
vt 0.044286 0.345982
vt 0.145780 0.384395
vt 0.241221 0.401479
vt 0.331433 0.408167
vt 0.418082 0.409770
vt 0.503146 0.409278
vt 0.588637 0.408590
vt 0.676590 0.408972
vt 0.769196 0.410982
vt 0.869136 0.413734
vt 0.981178 0.412770
vt 0.018530 0.433327
vt 0.131706 0.453906
vt 0.232569 0.464389
vt 0.325917 0.468895
vt 0.414575 0.469888
vt 0.500969 0.469250
vt 0.587377 0.468620
vt 0.676077 0.469644
vt 0.769481 0.474207
vt 0.870393 0.484806
vt 0.983569 0.505583
vt 0.021033 0.526222
vt 0.133034 0.525049
vt 0.232910 0.527673
vt 0.325450 0.529613
vt 0.413350 0.529942
vt 0.498814 0.529224
vt 0.583877 0.528718
vt 0.670552 0.530327
vt 0.760806 0.537052
vt 0.856279 0.554232
vt 0.957744 0.592807
vt 0.053243 0.616144
vt 0.150267 0.595387
vt 0.242279 0.590459
vt 0.329813 0.589806
vt 0.414049 0.589453
vt 0.496249 0.588702
vt 0.577683 0.588361
vt 0.659597 0.590403
vt 0.742926 0.598494
vt 0.827236 0.619552
vt 0.907406 0.667114
vt 0.113880 0.693767
vt 0.184281 0.662726
vt 0.261257 0.652526
vt 0.339165 0.649574
vt 0.416535 0.648468
vt 0.492953 0.647641
vt 0.568347 0.647437
vt 0.642685 0.649623
vt 0.715412 0.657808
vt 0.783810 0.678626
vt 0.838391 0.723085
vt 0.195883 0.749408
vt 0.234908 0.726339
vt 0.290122 0.715370
vt 0.353622 0.710533
vt 0.420905 0.708278
vt 0.489123 0.707073
vt 0.556224 0.706860
vt 0.620351 0.708811
vt 0.679123 0.715424
vt 0.728360 0.730711
vt 0.759660 0.759231
vt 0.306014 0.152109
vt 0.326719 0.158770
vt 0.366141 0.164562
vt 0.418078 0.167529
vt 0.477394 0.168362
vt 0.540303 0.168072
vt 0.603474 0.167105
vt 0.663048 0.165024
vt 0.713543 0.160511
vt 0.746642 0.152471
vt 0.256063 0.786277
vt 0.289147 0.778190
vt 0.339639 0.773623
vt 0.399220 0.771484
vt 0.462381 0.770464
vt 0.525257 0.770133
vt 0.584510 0.770942
vt 0.636348 0.773902
vt 0.675630 0.779693
vt 0.696182 0.786313
vn 0.323956 -0.916326 -0.235368
vn 0.123740 -0.916326 -0.380834
vn 0.195836 -0.773548 -0.602721
vn 0.512705 -0.773548 -0.372502
vn -0.123740 -0.916326 -0.380834
vn -0.195836 -0.773548 -0.602721
vn -0.323956 -0.916326 -0.235368
vn -0.512705 -0.773548 -0.372502
vn -0.400432 -0.916326 -0.000000
vn -0.633738 -0.773548 0.000000
vn -0.323956 -0.916326 0.235368
vn -0.512705 -0.773548 0.372502
vn -0.123740 -0.916326 0.380834
vn -0.195836 -0.773548 0.602721
vn 0.123740 -0.916326 0.380834
vn 0.195836 -0.773548 0.602721
vn 0.323957 -0.916326 0.235368
vn 0.512705 -0.773548 0.372502
vn 0.400432 -0.916326 0.000000
vn 0.633738 -0.773548 0.000000
vn 0.256443 -0.557962 -0.789250
vn 0.671376 -0.557962 -0.487783
vn -0.256443 -0.557962 -0.789250
vn -0.671376 -0.557962 -0.487783
vn -0.829866 -0.557962 0.000000
vn -0.671376 -0.557962 0.487783
vn -0.256443 -0.557962 0.789250
vn 0.256443 -0.557962 0.789250
vn 0.671376 -0.557962 0.487783
vn 0.829866 -0.557962 0.000000
vn 0.295556 -0.291930 -0.909628
vn 0.773776 -0.291930 -0.562181
vn -0.295556 -0.291930 -0.909628
vn -0.773776 -0.291930 -0.562181
vn -0.956440 -0.291930 0.000000
vn -0.773776 -0.291930 0.562181
vn -0.295556 -0.291930 0.909628
vn 0.295556 -0.291930 0.909628
vn 0.773776 -0.291930 0.562181
vn 0.956440 -0.291930 0.000000
vn 0.309017 0.000000 -0.951057
vn 0.809017 -0.000000 -0.587785
vn -0.309017 0.000000 -0.951057
vn -0.809017 0.000000 -0.587785
vn -1.000000 0.000000 0.000000
vn -0.809017 0.000000 0.587785
vn -0.309017 -0.000000 0.951057
vn 0.309017 0.000000 0.951057
vn 0.809017 -0.000000 0.587785
vn 1.000000 0.000000 0.000000
vn 0.295556 0.291930 -0.909628
vn 0.773776 0.291930 -0.562181
vn -0.295556 0.291930 -0.909628
vn -0.773776 0.291930 -0.562181
vn -0.956440 0.291930 0.000000
vn -0.773776 0.291930 0.562181
vn -0.295556 0.291930 0.909628
vn 0.295556 0.291930 0.909628
vn 0.773776 0.291930 0.562181
vn 0.956440 0.291930 0.000000
vn 0.256443 0.557962 -0.789250
vn 0.671376 0.557962 -0.487783
vn -0.256443 0.557962 -0.789250
vn -0.671376 0.557962 -0.487783
vn -0.829866 0.557962 0.000000
vn -0.671376 0.557962 0.487783
vn -0.256443 0.557962 0.789250
vn 0.256443 0.557962 0.789250
vn 0.671376 0.557962 0.487783
vn 0.829866 0.557962 0.000000
vn 0.195836 0.773548 -0.602721
vn 0.512705 0.773548 -0.372502
vn -0.195836 0.773548 -0.602721
vn -0.512705 0.773548 -0.372502
vn -0.633738 0.773548 0.000000
vn -0.512705 0.773548 0.372502
vn -0.195836 0.773548 0.602721
vn 0.195836 0.773548 0.602721
vn 0.512705 0.773548 0.372502
vn 0.633738 0.773548 0.000000
vn 0.123740 0.916326 -0.380834
vn 0.323956 0.916326 -0.235368
vn -0.123740 0.916326 -0.380834
vn -0.323956 0.916326 -0.235368
vn -0.400432 0.916326 -0.000000
vn -0.323956 0.916326 0.235368
vn -0.123740 0.916326 0.380834
vn 0.123740 0.916326 0.380834
vn 0.323957 0.916326 0.235368
vn 0.400432 0.916326 0.000000
vn 0.000000 -1.000000 -0.000000
vn 0.000000 1.000000 0.000000
s 1
g pSphere1
usemtl lambert11SG
f 1/1/1 2/2/2 12/13/3 11/12/4
f 2/2/2 3/3/5 13/14/6 12/13/3
f 3/3/5 4/4/7 14/15/8 13/14/6
f 4/4/7 5/5/9 15/16/10 14/15/8
f 5/5/9 6/6/11 16/17/12 15/16/10
f 6/6/11 7/7/13 17/18/14 16/17/12
f 7/7/13 8/8/15 18/19/16 17/18/14
f 8/8/15 9/9/17 19/20/18 18/19/16
f 9/9/17 10/10/19 20/21/20 19/20/18
f 10/10/19 1/11/1 11/22/4 20/21/20
f 11/12/4 12/13/3 22/24/21 21/23/22
f 12/13/3 13/14/6 23/25/23 22/24/21
f 13/14/6 14/15/8 24/26/24 23/25/23
f 14/15/8 15/16/10 25/27/25 24/26/24
f 15/16/10 16/17/12 26/28/26 25/27/25
f 16/17/12 17/18/14 27/29/27 26/28/26
f 17/18/14 18/19/16 28/30/28 27/29/27
f 18/19/16 19/20/18 29/31/29 28/30/28
f 19/20/18 20/21/20 30/32/30 29/31/29
f 20/21/20 11/22/4 21/33/22 30/32/30
f 21/23/22 22/24/21 32/35/31 31/34/32
f 22/24/21 23/25/23 33/36/33 32/35/31
f 23/25/23 24/26/24 34/37/34 33/36/33
f 24/26/24 25/27/25 35/38/35 34/37/34
f 25/27/25 26/28/26 36/39/36 35/38/35
f 26/28/26 27/29/27 37/40/37 36/39/36
f 27/29/27 28/30/28 38/41/38 37/40/37
f 28/30/28 29/31/29 39/42/39 38/41/38
f 29/31/29 30/32/30 40/43/40 39/42/39
f 30/32/30 21/33/22 31/44/32 40/43/40
f 31/34/32 32/35/31 42/46/41 41/45/42
f 32/35/31 33/36/33 43/47/43 42/46/41
f 33/36/33 34/37/34 44/48/44 43/47/43
f 34/37/34 35/38/35 45/49/45 44/48/44
f 35/38/35 36/39/36 46/50/46 45/49/45
f 36/39/36 37/40/37 47/51/47 46/50/46
f 37/40/37 38/41/38 48/52/48 47/51/47
f 38/41/38 39/42/39 49/53/49 48/52/48
f 39/42/39 40/43/40 50/54/50 49/53/49
f 40/43/40 31/44/32 41/55/42 50/54/50
f 41/45/42 42/46/41 52/57/51 51/56/52
f 42/46/41 43/47/43 53/58/53 52/57/51
f 43/47/43 44/48/44 54/59/54 53/58/53
f 44/48/44 45/49/45 55/60/55 54/59/54
f 45/49/45 46/50/46 56/61/56 55/60/55
f 46/50/46 47/51/47 57/62/57 56/61/56
f 47/51/47 48/52/48 58/63/58 57/62/57
f 48/52/48 49/53/49 59/64/59 58/63/58
f 49/53/49 50/54/50 60/65/60 59/64/59
f 50/54/50 41/55/42 51/66/52 60/65/60
f 51/56/52 52/57/51 62/68/61 61/67/62
f 52/57/51 53/58/53 63/69/63 62/68/61
f 53/58/53 54/59/54 64/70/64 63/69/63
f 54/59/54 55/60/55 65/71/65 64/70/64
f 55/60/55 56/61/56 66/72/66 65/71/65
f 56/61/56 57/62/57 67/73/67 66/72/66
f 57/62/57 58/63/58 68/74/68 67/73/67
f 58/63/58 59/64/59 69/75/69 68/74/68
f 59/64/59 60/65/60 70/76/70 69/75/69
f 60/65/60 51/66/52 61/77/62 70/76/70
f 61/67/62 62/68/61 72/79/71 71/78/72
f 62/68/61 63/69/63 73/80/73 72/79/71
f 63/69/63 64/70/64 74/81/74 73/80/73
f 64/70/64 65/71/65 75/82/75 74/81/74
f 65/71/65 66/72/66 76/83/76 75/82/75
f 66/72/66 67/73/67 77/84/77 76/83/76
f 67/73/67 68/74/68 78/85/78 77/84/77
f 68/74/68 69/75/69 79/86/79 78/85/78
f 69/75/69 70/76/70 80/87/80 79/86/79
f 70/76/70 61/77/62 71/88/72 80/87/80
f 71/78/72 72/79/71 82/90/81 81/89/82
f 72/79/71 73/80/73 83/91/83 82/90/81
f 73/80/73 74/81/74 84/92/84 83/91/83
f 74/81/74 75/82/75 85/93/85 84/92/84
f 75/82/75 76/83/76 86/94/86 85/93/85
f 76/83/76 77/84/77 87/95/87 86/94/86
f 77/84/77 78/85/78 88/96/88 87/95/87
f 78/85/78 79/86/79 89/97/89 88/96/88
f 79/86/79 80/87/80 90/98/90 89/97/89
f 80/87/80 71/88/72 81/99/82 90/98/90
f 2/2/2 1/1/1 91/100/91
f 3/3/5 2/2/2 91/101/91
f 4/4/7 3/3/5 91/102/91
f 5/5/9 4/4/7 91/103/91
f 6/6/11 5/5/9 91/104/91
f 7/7/13 6/6/11 91/105/91
f 8/8/15 7/7/13 91/106/91
f 9/9/17 8/8/15 91/107/91
f 10/10/19 9/9/17 91/108/91
f 1/11/1 10/10/19 91/109/91
f 81/89/82 82/90/81 92/110/92
f 82/90/81 83/91/83 92/111/92
f 83/91/83 84/92/84 92/112/92
f 84/92/84 85/93/85 92/113/92
f 85/93/85 86/94/86 92/114/92
f 86/94/86 87/95/87 92/115/92
f 87/95/87 88/96/88 92/116/92
f 88/96/88 89/97/89 92/117/92
f 89/97/89 90/98/90 92/118/92
f 90/98/90 81/99/82 92/119/92
