# This file uses centimeters as units for non-parametric coordinates.

mtllib bucket.mtl
g default
v 0.242380 0.342140 -0.836365
v 0.259391 0.327594 -0.888522
v -0.030400 0.575387 -0.934248
v -0.030400 0.575387 -0.879406
v 0.488459 0.131724 -0.711454
v 0.520816 0.104056 -0.755822
v 0.683748 -0.035263 -0.516902
v 0.728284 -0.073344 -0.549137
v 0.809131 -0.142475 -0.271751
v 0.861487 -0.187242 -0.288698
v 0.852335 -0.179417 -0.000000
v 0.907385 -0.226488 -0.000000
v 0.809131 -0.142474 0.271751
v 0.861486 -0.187242 0.288698
v -0.030400 0.575387 0.879405
v -0.030400 0.575387 0.934247
v 0.259391 0.327594 0.888522
v 0.242380 0.342140 0.836364
v 0.683747 -0.035262 0.516901
v 0.728284 -0.073344 0.549137
v 0.520816 0.104056 0.755822
v 0.488458 0.131724 0.711454
v 0.557819 -1.193402 -0.405279
v 0.405279 -1.193402 -0.557819
v 0.526216 0.600073 -0.724274
v 0.724274 0.600073 -0.526216
v 0.617261 -0.884329 0.200560
v -0.000000 -0.884329 -0.000000
v 0.525074 -0.884329 0.381488
v 0.381488 -0.884329 0.525074
v 0.200560 -0.884329 0.617261
v -0.681757 0.578237 0.495326
v -0.495326 0.578237 0.681757
v -0.381489 -0.884329 0.525074
v -0.525074 -0.884329 0.381488
v 0.681758 0.578237 -0.495326
v 0.495326 0.578237 -0.681758
v 0.381489 -0.884329 -0.525074
v 0.525074 -0.884329 -0.381489
v 0.260408 0.578237 -0.801454
v 0.276648 0.600073 -0.851435
v -0.000000 0.600073 -0.895252
v -0.000000 0.578237 -0.842699
v -0.842699 0.578237 -0.000000
v -0.895251 0.600073 -0.000000
v -0.851435 0.600073 0.276648
v -0.801454 0.578237 0.260408
v -0.405279 -1.193402 0.557819
v -0.213068 -1.193402 0.655755
v -0.276648 0.600073 0.851435
v -0.526216 0.600073 0.724274
v 0.655756 -1.193402 -0.213068
v 0.851435 0.600073 -0.276648
v -0.260408 0.578237 0.801454
v -0.200560 -0.884329 0.617261
v 0.801454 0.578237 -0.260408
v 0.617262 -0.884329 -0.200561
v -0.724274 0.600073 0.526216
v -0.000000 -1.193402 0.689502
v -0.000000 0.600073 0.895251
v 0.689502 -1.193402 -0.000000
v 0.895251 0.600073 -0.000000
v -0.000000 0.578237 0.842698
v -0.000000 -0.884329 0.649027
v 0.842698 0.578237 -0.000000
v 0.649027 -0.884329 -0.000000
v 0.655755 -1.193402 0.213068
v 0.851434 0.600073 0.276648
v 0.213068 -1.193402 0.655755
v 0.276648 0.600073 0.851434
v 0.801454 0.578237 0.260408
v 0.260408 0.578237 0.801454
v 0.557819 -1.193402 0.405279
v 0.724273 0.600073 0.526215
v 0.405279 -1.193402 0.557819
v 0.526215 0.600073 0.724273
v 0.681757 0.578237 0.495326
v 0.495326 0.578237 0.681757
v -0.557819 -1.193402 0.405279
v -0.000000 -1.193402 -0.000000
v -0.801454 0.578237 -0.260408
v -0.851435 0.600073 -0.276648
v -0.276648 0.600073 -0.851435
v -0.260408 0.578237 -0.801454
v -0.617262 -0.884329 0.200560
v 0.200560 -0.884329 -0.617262
v -0.681757 0.578237 -0.495326
v -0.724274 0.600073 -0.526216
v -0.526216 0.600073 -0.724274
v -0.495326 0.578237 -0.681758
v -0.655756 -1.193402 0.213068
v 0.213068 -1.193402 -0.655756
v -0.649027 -0.884329 -0.000000
v -0.000000 -0.884329 -0.649027
v -0.617262 -0.884329 -0.200560
v -0.200561 -0.884329 -0.617262
v -0.689502 -1.193402 -0.000000
v -0.000000 -1.193402 -0.689502
v -0.525074 -0.884329 -0.381489
v -0.381489 -0.884329 -0.525074
v -0.655756 -1.193402 -0.213068
v -0.213068 -1.193402 -0.655756
v -0.557819 -1.193402 -0.405279
v -0.405279 -1.193402 -0.557819
v -0.060062 0.516243 0.980364
v 0.060062 0.516243 0.980364
v -0.060062 0.611220 0.936421
v 0.060062 0.611220 0.936421
v -0.060062 0.611220 0.804163
v 0.060062 0.611220 0.804163
v -0.060062 0.516243 0.804163
v 0.060062 0.516243 0.804163
v -0.060062 0.516243 -0.980363
v 0.060062 0.516243 -0.980363
v -0.060062 0.611220 -0.936419
v 0.060062 0.611220 -0.936419
v -0.060062 0.611220 -0.804163
v 0.060062 0.611220 -0.804163
v -0.060062 0.516243 -0.804163
v 0.060062 0.516243 -0.804163
vt 0.141473 0.288973
vt 0.144655 0.296596
vt 0.089102 0.302696
vt 0.089182 0.294715
vt 0.188772 0.271266
vt 0.194903 0.277785
vt 0.226446 0.243328
vt 0.234927 0.248104
vt 0.250809 0.207892
vt 0.260809 0.210458
vt 0.259476 0.168429
vt 0.270017 0.168534
vt 0.251599 0.128800
vt 0.261648 0.126434
vt 0.091737 0.038767
vt 0.091816 0.030787
vt 0.147236 0.037995
vt 0.143903 0.045552
vt 0.227948 0.092885
vt 0.236522 0.088279
vt 0.197098 0.057805
vt 0.190839 0.064200
vt 0.598054 0.687839
vt 0.632889 0.688585
vt 0.631841 0.980160
vt 0.586611 0.979191
vt 0.687644 0.328516
vt 0.601320 0.275373
vt 0.699841 0.299240
vt 0.702395 0.267626
vt 0.695054 0.236772
vt 0.825538 0.622764
vt 0.784331 0.630912
vt 0.745451 0.401168
vt 0.776739 0.394935
vt 0.407135 0.618614
vt 0.366319 0.607638
vt 0.431576 0.383908
vt 0.462162 0.392186
vt 0.326077 0.594808
vt 0.323175 0.603229
vt 0.283211 0.588444
vt 0.286501 0.580167
vt 0.906295 0.600802
vt 0.910236 0.608769
vt 0.868762 0.621332
vt 0.866251 0.612779
vt 0.292002 0.625885
vt 0.324822 0.637583
vt 0.231846 0.913938
vt 0.189232 0.898750
vt 0.563268 0.685851
vt 0.541444 0.976609
vt 0.742727 0.637214
vt 0.713975 0.405992
vt 0.448432 0.627703
vt 0.493086 0.399028
vt 0.363811 0.616185
vt 0.827559 0.631439
vt 0.358039 0.648103
vt 0.274975 0.927598
vt 0.528574 0.682624
vt 0.496398 0.972420
vt 0.700820 0.641640
vt 0.682364 0.409382
vt 0.490113 0.634875
vt 0.524288 0.404420
vt 0.785936 0.639673
vt 0.405029 0.627269
vt 0.494018 0.678162
vt 0.451531 0.966626
vt 0.391610 0.657432
vt 0.318564 0.939710
vt 0.532081 0.640114
vt 0.555708 0.408349
vt 0.658704 0.644161
vt 0.650674 0.411323
vt 0.459643 0.672471
vt 0.406898 0.959237
vt 0.425493 0.665558
vt 0.362557 0.950261
vt 0.574235 0.643408
vt 0.587286 0.410811
vt 0.616476 0.644755
vt 0.618961 0.411801
vt 0.743924 0.646040
vt 0.446733 0.636446
vt 0.701607 0.650512
vt 0.488827 0.643689
vt 0.531209 0.648978
vt 0.659079 0.653059
vt 0.573779 0.652303
vt 0.616436 0.653661
vt 0.259619 0.613025
vt 0.147186 0.882052
vt 0.678538 0.209696
vt 0.666997 0.352591
vt 0.907973 0.305569
vt 0.884608 0.328933
vt 0.822532 0.239268
vt 0.855167 0.343934
vt 0.922974 0.276128
vt 0.136535 0.504547
vt 0.131665 0.512082
vt 0.095541 0.488032
vt 0.101707 0.481488
vt 0.244007 0.571882
vt 0.247676 0.563766
vt 0.639921 0.369107
vt 0.654463 0.189048
vt 0.822532 0.349103
vt 0.928142 0.243492
vt 0.922974 0.210857
vt 0.789896 0.343934
vt 0.609066 0.376448
vt 0.625187 0.176851
vt 0.807792 0.387324
vt 0.401383 0.374215
vt 0.172606 0.525906
vt 0.168192 0.533649
vt 0.205644 0.553599
vt 0.209684 0.545660
vt 0.907973 0.181416
vt 0.760455 0.328933
vt 0.577453 0.373894
vt 0.593574 0.174298
vt 0.227715 0.599018
vt 0.105762 0.863866
vt 0.667729 0.688089
vt 0.677077 0.979516
vt 0.884608 0.158051
vt 0.737091 0.305569
vt 0.562719 0.181638
vt 0.548176 0.361697
vt 0.838571 0.378380
vt 0.371639 0.363129
vt 0.535643 0.198154
vt 0.524101 0.341050
vt 0.722090 0.276128
vt 0.855167 0.143050
vt 0.514995 0.222229
vt 0.507585 0.313973
vt 0.196331 0.583883
vt 0.065013 0.844215
vt 0.702528 0.686351
vt 0.722261 0.977259
vt 0.716921 0.243492
vt 0.822532 0.137881
vt 0.502798 0.251506
vt 0.500245 0.283119
vt 0.231224 0.287982
vt 0.258099 0.305494
vt 0.342394 0.350679
vt 0.722090 0.210857
vt 0.789896 0.143050
vt 0.737091 0.181416
vt 0.760455 0.158051
vt 0.285588 0.321820
vt 0.313696 0.336897
vt 0.840446 0.667050
vt 0.874385 0.659167
vt 0.945400 0.941963
vt 0.901333 0.952198
vt 0.737244 0.683374
vt 0.767336 0.973393
vt 0.806246 0.673717
vt 0.856929 0.960855
vt 0.771831 0.679161
vt 0.812244 0.967923
vt 0.574810 0.121602
vt 0.574810 0.095527
vt 0.595426 0.095527
vt 0.595426 0.121602
vt 0.617516 0.066372
vt 0.643591 0.066372
vt 0.643591 0.095081
vt 0.617516 0.095081
vt 0.596191 0.121602
vt 0.596191 0.095527
vt 0.616807 0.095527
vt 0.616807 0.121602
vt 0.574810 0.027679
vt 0.600885 0.027679
vt 0.600885 0.065926
vt 0.574810 0.065926
vt 0.601640 0.065926
vt 0.601640 0.027679
vt 0.622256 0.027679
vt 0.622256 0.056387
vt 0.623000 0.065926
vt 0.623000 0.027679
vt 0.643616 0.037217
vt 0.643616 0.065926
vt 0.638167 0.121602
vt 0.617551 0.121602
vt 0.617551 0.095527
vt 0.638167 0.095527
vt 0.590756 0.095081
vt 0.590756 0.066372
vt 0.616830 0.066372
vt 0.616830 0.095081
vt 0.659526 0.131140
vt 0.638910 0.131140
vt 0.638910 0.105065
vt 0.659526 0.105065
vt 0.644359 0.065926
vt 0.644359 0.027679
vt 0.670434 0.027679
vt 0.670434 0.065926
vt 0.665579 0.066372
vt 0.686196 0.075911
vt 0.686196 0.104619
vt 0.665579 0.104619
vt 0.644277 0.066372
vt 0.664893 0.066372
vt 0.664893 0.095080
vt 0.644277 0.104619
vn 0.649884 0.760033 0.000000
vn 0.649884 0.760033 0.000000
vn 0.649884 0.760033 0.000000
vn 0.649884 0.760033 0.000000
vn 0.649885 0.760033 0.000000
vn 0.649885 0.760033 0.000000
vn 0.649885 0.760033 -0.000000
vn 0.649884 0.760033 -0.000000
vn 0.649884 0.760033 -0.000000
vn 0.649884 0.760033 -0.000000
vn 0.649885 0.760033 0.000000
vn 0.649885 0.760033 0.000000
vn 0.649885 0.760033 -0.000000
vn 0.649885 0.760033 -0.000000
vn 0.649885 0.760033 0.000000
vn 0.649885 0.760033 0.000000
vn 0.649885 0.760033 -0.000000
vn 0.649885 0.760033 -0.000000
vn 0.649885 0.760033 -0.000000
vn 0.649885 0.760033 -0.000000
vn 0.649885 0.760033 -0.000000
vn 0.649885 0.760033 -0.000000
vn 0.803745 -0.113973 -0.583955
vn 0.583955 -0.113974 -0.803745
vn 0.583955 -0.113973 -0.803745
vn 0.803745 -0.113974 -0.583955
vn 0.000000 1.000000 -0.000000
vn 0.000000 1.000000 -0.000000
vn 0.000000 1.000000 -0.000000
vn 0.000000 1.000000 0.000000
vn 0.000000 1.000000 0.000000
vn 0.802016 0.131273 -0.582699
vn 0.582699 0.131273 -0.802016
vn 0.582699 0.131273 -0.802016
vn 0.802016 0.131273 -0.582699
vn -0.802016 0.131273 0.582699
vn -0.582698 0.131273 0.802016
vn -0.582698 0.131273 0.802016
vn -0.802016 0.131273 0.582699
vn -0.118570 0.923458 0.364920
vn -0.118570 0.923458 0.364920
vn 0.000000 0.923458 0.383700
vn 0.000000 0.923458 0.383700
vn 0.383700 0.923458 -0.000000
vn 0.383700 0.923458 -0.000000
vn 0.364920 0.923458 -0.118570
vn 0.364920 0.923458 -0.118570
vn -0.583955 -0.113973 0.803745
vn -0.307003 -0.113973 0.944859
vn -0.307003 -0.113973 0.944859
vn -0.583955 -0.113973 0.803745
vn 0.944860 -0.113973 -0.307002
vn 0.944860 -0.113973 -0.307002
vn 0.306343 0.131273 -0.942826
vn 0.306343 0.131273 -0.942826
vn -0.942827 0.131273 0.306342
vn -0.942827 0.131273 0.306342
vn -0.225533 0.923458 0.310419
vn -0.225533 0.923458 0.310419
vn 0.310419 0.923458 -0.225533
vn 0.310419 0.923458 -0.225533
vn 0.000000 -0.113973 0.993484
vn 0.000000 -0.113973 0.993484
vn 0.993484 -0.113973 0.000001
vn 0.993484 -0.113973 0.000001
vn -0.000000 0.131273 -0.991346
vn -0.000000 0.131273 -0.991346
vn -0.991346 0.131273 -0.000001
vn -0.991346 0.131273 -0.000001
vn 0.225533 0.923458 -0.310419
vn 0.225533 0.923458 -0.310419
vn -0.310419 0.923458 0.225533
vn -0.310419 0.923458 0.225533
vn 0.944859 -0.113973 0.307003
vn 0.944859 -0.113973 0.307003
vn 0.307003 -0.113973 0.944859
vn 0.307003 -0.113973 0.944859
vn -0.942826 0.131273 -0.306343
vn -0.942826 0.131273 -0.306343
vn -0.306343 0.131273 -0.942826
vn -0.306343 0.131273 -0.942826
vn 0.803745 -0.113973 0.583955
vn 0.803745 -0.113973 0.583955
vn 0.583955 -0.113973 0.803745
vn 0.583955 -0.113973 0.803745
vn -0.802016 0.131273 -0.582699
vn -0.802016 0.131273 -0.582699
vn -0.582699 0.131273 -0.802016
vn -0.582699 0.131273 -0.802016
vn 0.118570 0.923458 -0.364920
vn 0.118570 0.923458 -0.364920
vn -0.364920 0.923458 0.118569
vn -0.364920 0.923458 0.118570
vn -0.000000 0.923458 -0.383699
vn -0.000000 0.923458 -0.383699
vn -0.383700 0.923458 -0.000000
vn -0.383700 0.923458 -0.000000
vn -0.364920 0.923458 -0.118570
vn -0.364920 0.923458 -0.118570
vn -0.118570 0.923458 -0.364919
vn -0.118570 0.923458 -0.364919
vn -0.310419 0.923458 -0.225533
vn -0.310419 0.923458 -0.225533
vn -0.225533 0.923458 -0.310419
vn -0.225533 0.923458 -0.310419
vn -0.803745 -0.113973 0.583955
vn -0.803745 -0.113973 0.583955
vn 0.000000 1.000000 0.000000
vn 0.000000 1.000000 0.000000
vn 0.000000 -1.000000 0.000000
vn 0.000000 -1.000000 -0.000000
vn 0.000000 -1.000000 0.000000
vn 0.000000 -1.000000 0.000000
vn 0.000000 -1.000000 0.000000
vn 0.364920 0.923458 0.118569
vn 0.364920 0.923458 0.118570
vn 0.118570 0.923458 0.364920
vn 0.118570 0.923458 0.364920
vn 0.000000 1.000000 -0.000000
vn 0.000000 1.000000 0.000000
vn 0.000000 -1.000000 0.000000
vn 0.000000 -1.000000 0.000000
vn 0.000000 -1.000000 0.000000
vn 0.000000 -1.000000 0.000000
vn 0.000000 1.000000 -0.000000
vn 0.000000 1.000000 -0.000000
vn 0.942826 0.131273 -0.306343
vn 0.942826 0.131273 -0.306343
vn -0.306342 0.131273 0.942826
vn -0.306343 0.131273 0.942827
vn 0.310419 0.923458 0.225533
vn 0.310419 0.923458 0.225533
vn 0.225533 0.923458 0.310419
vn 0.225533 0.923458 0.310419
vn 0.000000 -1.000000 0.000000
vn 0.000000 -1.000000 0.000000
vn 0.000000 1.000000 -0.000000
vn 0.000000 1.000000 0.000000
vn -0.944859 -0.113973 0.307003
vn -0.944859 -0.113973 0.307003
vn 0.307003 -0.113973 -0.944859
vn 0.307003 -0.113973 -0.944859
vn 0.000000 -1.000000 0.000000
vn 0.000000 -1.000000 0.000000
vn 0.000000 1.000000 -0.000000
vn 0.000000 1.000000 -0.000000
vn 0.991346 0.131273 0.000000
vn 0.991346 0.131273 0.000000
vn 0.000000 0.131273 0.991346
vn 0.000000 0.131273 0.991346
vn 0.000000 1.000000 0.000000
vn 0.000000 1.000000 0.000000
vn 0.000000 -1.000000 0.000000
vn 0.000000 -1.000000 0.000000
vn 0.000000 1.000000 0.000000
vn 0.000000 1.000000 0.000000
vn -0.993484 -0.113973 -0.000000
vn -0.993484 -0.113973 -0.000000
vn -0.000000 -0.113973 -0.993484
vn -0.000000 -0.113973 -0.993484
vn 0.000000 -1.000000 0.000000
vn 0.000000 -1.000000 0.000000
vn 0.000000 1.000000 -0.000000
vn 0.000000 1.000000 0.000000
vn 0.942826 0.131273 0.306343
vn 0.942826 0.131273 0.306343
vn 0.306343 0.131273 0.942826
vn 0.306343 0.131273 0.942826
vn 0.000000 -1.000000 0.000000
vn 0.000000 -1.000000 0.000000
vn 0.000000 -1.000000 0.000000
vn 0.000000 -1.000000 -0.000000
vn 0.802016 0.131273 0.582699
vn 0.802016 0.131273 0.582699
vn 0.582699 0.131273 0.802016
vn 0.582699 0.131273 0.802016
vn -0.944859 -0.113973 -0.307003
vn -0.944859 -0.113973 -0.307003
vn -0.307003 -0.113973 -0.944859
vn -0.307003 -0.113973 -0.944859
vn -0.803745 -0.113973 -0.583955
vn -0.803745 -0.113973 -0.583955
vn -0.583955 -0.113973 -0.803745
vn -0.583955 -0.113973 -0.803745
vn 0.000000 0.419911 0.907566
vn 0.000000 0.419911 0.907566
vn 0.000000 0.419911 0.907566
vn 0.000000 0.419911 0.907566
vn 0.000000 1.000000 0.000000
vn 0.000000 1.000000 0.000000
vn 0.000000 1.000000 0.000000
vn 0.000000 1.000000 0.000000
vn 0.000000 0.000000 -1.000000
vn 0.000000 0.000000 -1.000000
vn 0.000000 0.000000 -1.000000
vn 0.000000 0.000000 -1.000000
vn 0.000000 -1.000000 0.000000
vn 0.000000 -1.000000 0.000000
vn 0.000000 -1.000000 0.000000
vn 0.000000 -1.000000 0.000000
vn 1.000000 0.000000 0.000000
vn 1.000000 0.000000 0.000000
vn 1.000000 0.000000 0.000000
vn 1.000000 0.000000 0.000000
vn -1.000000 0.000000 0.000000
vn -1.000000 0.000000 0.000000
vn -1.000000 0.000000 0.000000
vn -1.000000 0.000000 0.000000
vn 0.000000 0.419911 -0.907566
vn 0.000000 0.419911 -0.907566
vn 0.000000 0.419911 -0.907566
vn 0.000000 0.419911 -0.907566
vn 0.000000 1.000000 0.000000
vn 0.000000 1.000000 0.000000
vn 0.000000 1.000000 0.000000
vn 0.000000 1.000000 0.000000
vn 0.000000 0.000000 1.000000
vn 0.000000 0.000000 1.000000
vn 0.000000 0.000000 1.000000
vn 0.000000 0.000000 1.000000
vn 0.000000 -1.000000 0.000000
vn 0.000000 -1.000000 0.000000
vn 0.000000 -1.000000 0.000000
vn 0.000000 -1.000000 0.000000
vn 1.000000 0.000000 0.000000
vn 1.000000 0.000000 0.000000
vn 1.000000 0.000000 0.000000
vn 1.000000 0.000000 0.000000
vn -1.000000 0.000000 0.000000
vn -1.000000 0.000000 0.000000
vn -1.000000 0.000000 0.000000
vn -1.000000 0.000000 0.000000
s 1
g bucket2
usemtl lambert8SG
f 1/1/1 2/2/2 3/3/3 4/4/4
f 5/5/5 6/6/6 2/2/2 1/1/1
f 7/7/7 8/8/8 6/6/6 5/5/5
f 9/9/9 10/10/10 8/8/8 7/7/7
f 11/11/11 12/12/12 10/10/10 9/9/9
f 13/13/13 14/14/14 12/12/12 11/11/11
f 15/15/15 16/16/16 17/17/17 18/18/18
f 19/19/19 20/20/20 14/14/14 13/13/13
f 18/18/18 17/17/17 21/21/21 22/22/22
f 22/22/22 21/21/21 20/20/20 19/19/19
s 3
f 23/23/23 24/24/24 25/25/25 26/26/26
s 4
f 27/27/27 28/28/28 29/29/29
f 30/30/30 28/28/28 31/31/31
f 29/29/29 28/28/28 30/30/30
s 5
f 32/32/32 33/33/33 34/34/34 35/35/35
f 36/36/36 37/37/37 38/38/38 39/39/39
s 7
f 40/40/40 41/41/41 42/42/42 43/43/43
f 44/44/44 45/45/45 46/46/46 47/47/47
s 3
f 48/48/48 49/49/49 50/50/50 51/51/51
f 52/52/52 23/23/23 26/26/26 53/53/53
s 5
f 33/33/33 54/54/54 55/55/55 34/34/34
f 56/56/56 36/36/36 39/39/39 57/57/57
s 7
f 37/37/58 25/58/59 41/41/41 40/40/40
f 47/47/47 46/46/46 58/59/60 32/32/61
s 3
f 49/49/49 59/60/62 60/61/63 50/50/50
f 61/62/64 52/52/52 53/53/53 62/63/65
s 5
f 54/54/54 63/64/66 64/65/67 55/55/55
f 65/66/68 56/56/56 57/57/57 66/67/69
s 7
f 32/32/61 58/59/60 51/68/70 33/33/71
f 36/36/72 26/69/73 25/58/59 37/37/58
s 3
f 67/70/74 61/62/64 62/63/65 68/71/75
f 59/60/62 69/72/76 70/73/77 60/61/63
s 5
f 71/74/78 65/66/68 66/67/69 27/75/79
f 63/64/66 72/76/80 31/77/81 64/65/67
s 3
f 73/78/82 67/70/74 68/71/75 74/79/83
f 69/72/76 75/80/84 76/81/85 70/73/77
s 5
f 77/82/86 71/74/78 27/75/79 29/83/87
f 72/76/80 78/84/88 30/85/89 31/77/81
s 3
f 75/80/84 73/78/82 74/79/83 76/81/85
s 7
f 33/33/71 51/68/70 50/86/90 54/54/91
f 56/56/92 53/87/93 26/69/73 36/36/72
s 5
f 78/84/88 77/82/86 29/83/87 30/85/89
s 7
f 54/54/91 50/86/90 60/88/94 63/64/95
f 65/66/96 62/89/97 53/87/93 56/56/92
f 71/74/98 68/90/99 62/89/97 65/66/96
f 63/64/95 60/88/94 70/91/100 72/76/101
f 77/82/102 74/92/103 68/90/99 71/74/98
f 72/76/101 70/91/100 76/93/104 78/84/105
f 78/84/105 76/93/104 74/92/103 77/82/102
s 3
f 79/94/106 48/48/48 51/51/51 58/95/107
s 4
f 31/31/31 28/28/28 64/96/108
f 66/97/109 28/28/28 27/27/27
s 10
f 73/98/110 75/99/111 80/100/112
f 75/99/111 69/101/113 80/100/112
f 67/102/114 73/98/110 80/100/112
s 7
f 81/103/115 82/104/116 45/105/45 44/106/44
f 43/43/43 42/42/42 83/107/117 84/108/118
s 4
f 57/109/119 28/28/28 66/97/109
f 64/96/108 28/28/28 55/110/120
s 10
f 69/101/113 59/111/121 80/100/112
f 61/112/122 67/102/114 80/100/112
f 52/113/123 61/112/122 80/100/112
f 59/111/121 49/114/124 80/100/112
s 4
f 39/115/125 28/28/28 57/109/119
f 55/110/120 28/28/28 34/116/126
s 5
f 47/47/127 32/32/32 35/35/35 85/117/128
f 37/37/37 40/40/129 86/118/130 38/38/38
s 7
f 87/119/131 88/120/132 82/104/116 81/103/115
f 84/108/118 83/107/117 89/121/133 90/122/134
f 90/122/134 89/121/133 88/120/132 87/119/131
s 10
f 23/123/135 52/113/123 80/100/112
f 49/114/124 48/124/136 80/100/112
s 4
f 38/125/137 28/28/28 39/115/125
f 34/116/126 28/28/28 35/126/138
s 3
f 91/127/139 79/94/106 58/95/107 46/128/140
f 24/24/24 92/129/141 41/130/142 25/25/25
s 10
f 24/131/143 23/123/135 80/100/112
f 48/124/136 79/132/144 80/100/112
s 4
f 35/126/138 28/28/28 85/133/145
f 86/134/146 28/28/28 38/125/137
s 5
f 44/44/147 47/47/127 85/117/128 93/135/148
f 40/40/129 43/43/149 94/136/150 86/118/130
s 4
f 85/133/145 28/28/28 93/137/151
f 94/138/152 28/28/28 86/134/146
s 10
f 79/132/144 91/139/153 80/100/112
f 92/140/154 24/131/143 80/100/112
s 4
f 93/137/151 28/28/28 95/141/155
f 96/142/156 28/28/28 94/138/152
s 3
f 97/143/157 91/127/139 46/128/140 45/144/158
f 92/129/141 98/145/159 42/146/160 41/130/142
s 10
f 91/139/153 97/147/161 80/100/112
f 98/148/162 92/140/154 80/100/112
s 4
f 95/141/155 28/28/28 99/149/163
f 100/150/164 28/28/28 96/142/156
f 99/149/163 28/28/28 100/150/164
s 5
f 81/103/165 44/106/147 93/151/148 95/152/166
f 43/43/149 84/108/167 96/153/168 94/136/150
s 10
f 97/147/161 101/154/169 80/100/112
f 102/155/170 98/148/162 80/100/112
f 101/154/169 103/156/171 80/100/112
f 104/157/172 102/155/170 80/100/112
f 103/156/171 104/157/172 80/100/112
s 5
f 87/119/173 81/103/165 95/152/166 99/158/174
f 84/108/167 90/122/175 100/159/176 96/153/168
s 3
f 101/160/177 97/161/157 45/162/158 82/163/178
f 98/145/159 102/164/179 83/165/180 42/146/160
s 5
f 90/122/175 87/119/173 99/158/174 100/159/176
s 3
f 103/166/181 101/160/177 82/163/178 88/167/182
f 102/164/179 104/168/183 89/169/184 83/165/180
f 104/168/183 103/166/181 88/167/182 89/169/184
s off
f 105/170/185 106/171/186 108/172/187 107/173/188
f 107/174/189 108/175/190 110/176/191 109/177/192
f 109/178/193 110/179/194 112/180/195 111/181/196
f 111/182/197 112/183/198 106/184/199 105/185/200
f 106/186/201 112/187/202 110/188/203 108/189/204
f 111/190/205 105/191/206 107/192/207 109/193/208
f 113/194/209 115/195/210 116/196/211 114/197/212
f 115/198/213 117/199/214 118/200/215 116/201/216
f 117/202/217 119/203/218 120/204/219 118/205/220
f 119/206/221 113/207/222 114/208/223 120/209/224
f 114/210/225 116/211/226 118/212/227 120/213/228
f 119/214/229 117/215/230 115/216/231 113/217/232
